<?xml version="1.0" standalone="no"?><!DOCTYPE svg PUBLIC "-//W3C//DTD SVG 1.1//EN" "http://www.w3.org/Graphics/SVG/1.1/DTD/svg11.dtd"><svg t="1744277440983" class="icon" viewBox="0 0 1024 1024" version="1.1" xmlns="http://www.w3.org/2000/svg" p-id="8778" xmlns:xlink="http://www.w3.org/1999/xlink" width="200" height="200"><path d="M640 938.666667a42.666667 42.666667 0 0 1-40.533333-29.013334L384 262.826667l-85.333333 262.826666A42.666667 42.666667 0 0 1 256 554.666667H85.333333a42.666667 42.666667 0 0 1 0-85.333334h139.946667l118.186667-354.986666a42.666667 42.666667 0 0 1 81.066666 0L640 761.173333l87.466667-262.826666A42.666667 42.666667 0 0 1 768 469.333333h170.666667a42.666667 42.666667 0 0 1 0 85.333334h-139.946667L682.666667 909.653333a42.666667 42.666667 0 0 1-42.666667 29.013334z" p-id="8779" fill="#ffffff"></path></svg>