<?xml version="1.0" standalone="no"?><!DOCTYPE svg PUBLIC "-//W3C//DTD SVG 1.1//EN" "http://www.w3.org/Graphics/SVG/1.1/DTD/svg11.dtd"><svg t="1743952258151" class="icon" viewBox="0 0 1024 1024" version="1.1" xmlns="http://www.w3.org/2000/svg" p-id="3996" xmlns:xlink="http://www.w3.org/1999/xlink" width="200" height="200"><path d="M896 768H128a42.666667 42.666667 0 0 1-23.466667-78.08S213.333333 608.853333 213.333333 341.333333a298.666667 298.666667 0 0 1 597.333334 0c0 267.52 108.373333 348.16 109.653333 349.013334A42.666667 42.666667 0 0 1 896 768zM219.306667 682.666667h585.386666A647.68 647.68 0 0 1 725.333333 341.333333 213.333333 213.333333 0 0 0 298.666667 341.333333a647.68 647.68 0 0 1-79.36 341.333334zM512 981.333333a128 128 0 0 1-64-17.493333 131.413333 131.413333 0 0 1-46.933333-46.506667 42.666667 42.666667 0 0 1 15.786666-58.026666 42.666667 42.666667 0 0 1 58.026667 15.36 45.226667 45.226667 0 0 0 15.786667 15.36 42.666667 42.666667 0 0 0 58.453333-15.36 42.666667 42.666667 0 0 1 58.026667-15.36 42.666667 42.666667 0 0 1 15.786666 58.026666A128 128 0 0 1 512 981.333333z" p-id="3997" fill="#ffffff"></path></svg>