<?xml version="1.0" standalone="no"?><!DOCTYPE svg PUBLIC "-//W3C//DTD SVG 1.1//EN" "http://www.w3.org/Graphics/SVG/1.1/DTD/svg11.dtd"><svg t="1744277304397" class="icon" viewBox="0 0 1024 1024" version="1.1" xmlns="http://www.w3.org/2000/svg" p-id="6376" xmlns:xlink="http://www.w3.org/1999/xlink" width="200" height="200"><path d="M512.1184 981.332924a127.999947 127.999947 0 0 1-63.999973-17.493326 131.413279 131.413279 0 0 1-46.933314-46.506647 42.666649 42.666649 0 0 1 15.78666-58.026642 42.666649 42.666649 0 0 1 58.026642 15.359993 45.226648 45.226648 0 0 0 15.786661 15.359994 42.666649 42.666649 0 0 0 58.453309-15.359994 42.666649 42.666649 0 0 1 58.026642-15.359993 42.666649 42.666649 0 0 1 15.78666 58.026642A127.999947 127.999947 0 0 1 512.1184 981.332924zM794.998282 597.333084a42.666649 42.666649 0 0 1-42.666649-31.57332A804.266332 804.266332 0 0 1 725.451644 341.333191a42.666649 42.666649 0 0 1 42.666649-42.666649 42.666649 42.666649 0 0 1 42.666649 42.666649 714.239702 714.239702 0 0 0 25.173323 201.386583 42.666649 42.666649 0 0 1-29.866654 52.053312 33.279986 33.279986 0 0 1-11.093329 2.559998zM725.451644 767.99968H128.11856a42.666649 42.666649 0 0 1-23.466657-78.079967S213.451858 608.85308 213.451858 341.333191a295.679877 295.679877 0 0 1 12.799994-85.333298 42.666649 42.666649 0 0 1 81.919966 24.746657A203.519915 203.519915 0 0 0 298.785156 341.333191a647.67973 647.67973 0 0 1-79.359967 341.333191H725.451644a42.666649 42.666649 0 0 1 0 85.333298z" p-id="6377" fill="#ffffff"></path><path d="M768.118293 383.99984a42.666649 42.666649 0 0 1-42.666649-42.666649 213.333244 213.333244 0 0 0-213.333244-213.333244 213.333244 213.333244 0 0 0-118.186617 35.839985 42.666649 42.666649 0 1 1-47.359981-71.253304A298.666542 298.666542 0 0 1 512.1184 42.666649a298.666542 298.666542 0 0 1 298.666542 298.666542 42.666649 42.666649 0 0 1-42.666649 42.666649zM981.451538 1023.999573a42.666649 42.666649 0 0 1-30.293321-12.373328l-938.666275-938.666275A42.666649 42.666649 0 0 1 73.078583 12.373328l938.666275 938.666276a42.666649 42.666649 0 0 1 0 60.586641A42.666649 42.666649 0 0 1 981.451538 1023.999573z" p-id="6378" fill="#ffffff"></path></svg>