<?xml version="1.0" standalone="no"?><!DOCTYPE svg PUBLIC "-//W3C//DTD SVG 1.1//EN" "http://www.w3.org/Graphics/SVG/1.1/DTD/svg11.dtd"><svg t="1744192699033" class="icon" viewBox="0 0 1024 1024" version="1.1" xmlns="http://www.w3.org/2000/svg" p-id="3790" xmlns:xlink="http://www.w3.org/1999/xlink" width="200" height="200"><path d="M810.666667 981.333333H213.333333a128 128 0 0 1-128-128V256a128 128 0 0 1 128-128h597.333334a128 128 0 0 1 128 128v597.333333a128 128 0 0 1-128 128zM213.333333 213.333333a42.666667 42.666667 0 0 0-42.666666 42.666667v597.333333a42.666667 42.666667 0 0 0 42.666666 42.666667h597.333334a42.666667 42.666667 0 0 0 42.666666-42.666667V256a42.666667 42.666667 0 0 0-42.666666-42.666667z" p-id="3791" fill="#ffffff"></path><path d="M682.666667 298.666667a42.666667 42.666667 0 0 1-42.666667-42.666667V85.333333a42.666667 42.666667 0 0 1 85.333333 0v170.666667a42.666667 42.666667 0 0 1-42.666666 42.666667zM341.333333 298.666667a42.666667 42.666667 0 0 1-42.666666-42.666667V85.333333a42.666667 42.666667 0 0 1 85.333333 0v170.666667a42.666667 42.666667 0 0 1-42.666667 42.666667zM896 469.333333H128a42.666667 42.666667 0 0 1 0-85.333333h768a42.666667 42.666667 0 0 1 0 85.333333z" p-id="3792" fill="#ffffff"></path></svg>