<?xml version="1.0" standalone="no"?><!DOCTYPE svg PUBLIC "-//W3C//DTD SVG 1.1//EN" "http://www.w3.org/Graphics/SVG/1.1/DTD/svg11.dtd"><svg t="1744036335458" class="icon" viewBox="0 0 1024 1024" version="1.1" xmlns="http://www.w3.org/2000/svg" p-id="5793" xmlns:xlink="http://www.w3.org/1999/xlink" width="200" height="200"><path d="M896 938.666667H128a128 128 0 0 1-128-128V341.333333a128 128 0 0 1 128-128h147.626667l72.96-108.8A42.666667 42.666667 0 0 1 384 85.333333h256a42.666667 42.666667 0 0 1 35.413333 19.2L748.373333 213.333333H896a128 128 0 0 1 128 128v469.333334a128 128 0 0 1-128 128zM128 298.666667a42.666667 42.666667 0 0 0-42.666667 42.666666v469.333334a42.666667 42.666667 0 0 0 42.666667 42.666666h768a42.666667 42.666667 0 0 0 42.666667-42.666666V341.333333a42.666667 42.666667 0 0 0-42.666667-42.666666h-170.666667a42.666667 42.666667 0 0 1-35.413333-19.2L616.96 170.666667H407.04L334.08 279.466667A42.666667 42.666667 0 0 1 298.666667 298.666667z" p-id="5794" fill="#ffffff"></path><path d="M512 768a213.333333 213.333333 0 1 1 213.333333-213.333333 213.333333 213.333333 0 0 1-213.333333 213.333333z m0-341.333333a128 128 0 1 0 128 128 128 128 0 0 0-128-128z" p-id="5795" fill="#ffffff"></path></svg>