<?xml version="1.0" standalone="no"?><!DOCTYPE svg PUBLIC "-//W3C//DTD SVG 1.1//EN" "http://www.w3.org/Graphics/SVG/1.1/DTD/svg11.dtd"><svg t="1743955071852" class="icon" viewBox="0 0 1024 1024" version="1.1" xmlns="http://www.w3.org/2000/svg" p-id="4202" xmlns:xlink="http://www.w3.org/1999/xlink" width="200" height="200"><path d="M512 977.493333a469.333333 469.333333 0 0 1 0-938.666666 474.453333 474.453333 0 0 1 190.72 42.666666 42.666667 42.666667 0 0 1-34.986667 77.653334A392.96 392.96 0 0 0 512 124.16a384 384 0 0 0 0 768 384 384 0 0 0 384-384V469.333333a42.666667 42.666667 0 0 1 85.333333 0v39.253334a469.333333 469.333333 0 0 1-469.333333 469.333333z" p-id="4203" fill="#ffffff"></path><path d="M512 637.013333a44.8 44.8 0 0 1-30.293333-12.373333l-128-128a42.666667 42.666667 0 1 1 60.586666-60.586667l97.706667 98.133334 396.373333-397.226667a42.666667 42.666667 0 1 1 60.586667 60.586667l-426.666667 426.666666a42.666667 42.666667 0 0 1-30.293333 12.8z" p-id="4204" fill="#ffffff"></path></svg>