<?xml version="1.0" standalone="no"?><!DOCTYPE svg PUBLIC "-//W3C//DTD SVG 1.1//EN" "http://www.w3.org/Graphics/SVG/1.1/DTD/svg11.dtd"><svg t="1744277318019" class="icon" viewBox="0 0 1024 1024" version="1.1" xmlns="http://www.w3.org/2000/svg" p-id="6583" xmlns:xlink="http://www.w3.org/1999/xlink" width="200" height="200"><path d="M576 853.333333H213.333333a42.666667 42.666667 0 0 1-42.666666-42.666666v-362.666667a42.666667 42.666667 0 0 1 12.373333-30.293333L469.333333 128a298.666667 298.666667 0 0 1 426.666667 426.666667l-287.573333 288.426666a42.666667 42.666667 0 0 1-32.426667 10.24zM256 768h302.08l275.2-276.053333a213.333333 213.333333 0 0 0-301.653333-301.653334L256 465.493333z" p-id="6584" fill="#ffffff"></path><path d="M85.333333 981.333333a42.666667 42.666667 0 0 1-30.293333-12.373333 42.666667 42.666667 0 0 1 0-60.586667l597.333333-597.333333a42.666667 42.666667 0 1 1 60.586667 60.586667l-597.333333 597.333333A42.666667 42.666667 0 0 1 85.333333 981.333333z" p-id="6585" fill="#ffffff"></path><path d="M746.666667 682.666667H384a42.666667 42.666667 0 0 1 0-85.333334h362.666667a42.666667 42.666667 0 0 1 0 85.333334z" p-id="6586" fill="#ffffff"></path></svg>