<?xml version="1.0" standalone="no"?><!DOCTYPE svg PUBLIC "-//W3C//DTD SVG 1.1//EN" "http://www.w3.org/Graphics/SVG/1.1/DTD/svg11.dtd"><svg t="1744277381371" class="icon" viewBox="0 0 1024 1024" version="1.1" xmlns="http://www.w3.org/2000/svg" p-id="7633" xmlns:xlink="http://www.w3.org/1999/xlink" width="200" height="200"><path d="M321.28 981.333333A276.906667 276.906667 0 0 1 128 902.4a277.333333 277.333333 0 0 1 357.12-421.973333l384-384a42.666667 42.666667 0 1 1 60.586667 60.586666L870.826667 213.333333l98.133333 97.706667a42.666667 42.666667 0 0 1 0 60.586667l-149.333333 149.333333a42.666667 42.666667 0 0 1-60.586667 0l-97.706667-98.133333-117.333333 117.333333A277.333333 277.333333 0 0 1 321.28 981.333333z m0-469.333333a189.866667 189.866667 0 1 0 133.12 54.186667 191.146667 191.146667 0 0 0-131.413333-51.626667z m400.213333-149.333333l67.84 67.84L878.506667 341.333333 810.666667 273.493333z" p-id="7634" fill="#ffffff"></path></svg>