<?xml version="1.0" standalone="no"?><!DOCTYPE svg PUBLIC "-//W3C//DTD SVG 1.1//EN" "http://www.w3.org/Graphics/SVG/1.1/DTD/svg11.dtd"><svg t="1744192739538" class="icon" viewBox="0 0 1024 1024" version="1.1" xmlns="http://www.w3.org/2000/svg" p-id="4158" xmlns:xlink="http://www.w3.org/1999/xlink" width="200" height="200"><path d="M704 443.733333a42.666667 42.666667 0 0 1-21.333333-5.546666L298.666667 216.746667a42.666667 42.666667 0 1 1 42.666666-74.24l384 221.44a42.666667 42.666667 0 0 1-21.333333 79.786666z" p-id="4159" fill="#ffffff"></path><path d="M512 981.333333a130.56 130.56 0 0 1-64-17.066666l-298.666667-170.666667A128 128 0 0 1 85.333333 682.666667V341.333333a128 128 0 0 1 64-110.933333l298.666667-170.666667a128 128 0 0 1 128 0l298.666667 170.666667A128 128 0 0 1 938.666667 341.333333v341.333334a128 128 0 0 1-64 110.933333l-298.666667 170.666667a130.56 130.56 0 0 1-64 17.066666z m0-853.333333a42.666667 42.666667 0 0 0-21.333333 5.973333l-298.666667 170.666667A42.666667 42.666667 0 0 0 170.666667 341.333333v341.333334a42.666667 42.666667 0 0 0 21.333333 37.12l298.666667 170.666666a42.666667 42.666667 0 0 0 42.666666 0l298.666667-170.666666A42.666667 42.666667 0 0 0 853.333333 682.666667V341.333333a42.666667 42.666667 0 0 0-21.333333-37.12l-298.666667-170.666666A42.666667 42.666667 0 0 0 512 128z m384 554.666667z" p-id="4160" fill="#ffffff"></path><path d="M512 554.666667a46.506667 46.506667 0 0 1-21.333333-5.546667L118.186667 334.08a42.666667 42.666667 0 1 1 42.666666-74.24L512 462.933333l351.146667-203.093333a42.666667 42.666667 0 0 1 42.666666 74.24l-372.48 215.466667a46.506667 46.506667 0 0 1-21.333333 5.12z" p-id="4161" fill="#ffffff"></path><path d="M512 984.746667a42.666667 42.666667 0 0 1-42.666667-42.666667V512a42.666667 42.666667 0 0 1 85.333334 0v430.08a42.666667 42.666667 0 0 1-42.666667 42.666667z" p-id="4162" fill="#ffffff"></path></svg>