<?xml version="1.0" standalone="no"?><!DOCTYPE svg PUBLIC "-//W3C//DTD SVG 1.1//EN" "http://www.w3.org/Graphics/SVG/1.1/DTD/svg11.dtd"><svg t="1744277389400" class="icon" viewBox="0 0 1024 1024" version="1.1" xmlns="http://www.w3.org/2000/svg" p-id="7839" xmlns:xlink="http://www.w3.org/1999/xlink" width="200" height="200"><path d="M938.648676 384.012266h-255.995094a42.665849 42.665849 0 0 1-42.665848-42.665848V85.351324a42.665849 42.665849 0 0 1 85.331697 0v213.329245h213.329245a42.665849 42.665849 0 0 1 0 85.331697z" p-id="7840" fill="#ffffff"></path><path d="M682.653582 384.012266a42.665849 42.665849 0 0 1-30.292752-12.373096 42.665849 42.665849 0 0 1 0-60.585505l298.660942-298.660943a42.665849 42.665849 0 1 1 60.585506 60.585506l-298.660943 298.660942A42.665849 42.665849 0 0 1 682.653582 384.012266z" p-id="7841" fill="#ffffff"></path><path d="M853.316978 978.347542h-10.666462a890.862925 890.862925 0 0 1-387.405908-137.810692 878.06317 878.06317 0 0 1-268.794848-268.794848 884.889706 884.889706 0 0 1-137.384034-388.259225A127.997547 127.997547 0 0 1 163.83686 42.685475h140.797301a127.997547 127.997547 0 0 1 127.997547 110.07789 497.05714 497.05714 0 0 0 27.732802 110.931208 127.997547 127.997547 0 0 1-29.012778 134.824082l-30.719411 30.719411a639.987734 639.987734 0 0 0 195.836247 195.836247l30.292752-30.719411a127.997547 127.997547 0 0 1 135.250741-29.012778 499.617091 499.617091 0 0 0 110.504549 27.732802 127.997547 127.997547 0 0 1 110.504549 127.997547v127.997546a127.997547 127.997547 0 0 1-127.997547 127.997547zM304.207503 128.017173h-127.997547a42.665849 42.665849 0 0 0-42.665849 46.505775A799.13135 799.13135 0 0 0 255.995093 525.236226a796.571399 796.571399 0 0 0 243.195339 243.195339 810.651129 810.651129 0 0 0 349.859961 124.584279 42.665849 42.665849 0 0 0 33.279362-12.799755 42.665849 42.665849 0 0 0 12.373097-30.292753v-127.997546a42.665849 42.665849 0 0 0-36.692631-42.665849 593.0553 593.0553 0 0 1-127.997546-31.999387 42.665849 42.665849 0 0 0-45.2258 9.386487l-53.332311 52.478994a42.665849 42.665849 0 0 1-51.199019 6.826536 725.319431 725.319431 0 0 1-272.208116-272.208116 42.665849 42.665849 0 0 1 6.826536-51.199019l54.185628-54.185628a42.665849 42.665849 0 0 0 9.386487-42.665849 590.922007 590.922007 0 0 1-31.999387-127.997547A42.665849 42.665849 0 0 0 304.207503 128.017173z" p-id="7842" fill="#ffffff"></path></svg>