<?xml version="1.0" standalone="no"?><!DOCTYPE svg PUBLIC "-//W3C//DTD SVG 1.1//EN" "http://www.w3.org/Graphics/SVG/1.1/DTD/svg11.dtd"><svg t="1744192757883" class="icon" viewBox="0 0 1024 1024" version="1.1" xmlns="http://www.w3.org/2000/svg" p-id="4371" xmlns:xlink="http://www.w3.org/1999/xlink" width="200" height="200"><path d="M512 640a128 128 0 1 1 128-128 128 128 0 0 1-128 128z m0-170.666667a42.666667 42.666667 0 1 0 42.666667 42.666667 42.666667 42.666667 0 0 0-42.666667-42.666667z" p-id="4372" fill="#ffffff"></path><path d="M813.653333 856.32a42.666667 42.666667 0 0 1-30.293333-12.373333 42.666667 42.666667 0 0 1 0-60.586667 384 384 0 0 0 0-542.72 42.666667 42.666667 0 0 1 60.586667-60.586667 469.333333 469.333333 0 0 1 0 663.893334 42.666667 42.666667 0 0 1-30.293334 12.373333z m-603.306666 0a42.666667 42.666667 0 0 1-30.293334-12.373333 469.333333 469.333333 0 0 1 0-663.893334 42.666667 42.666667 0 0 1 60.586667 60.586667 384 384 0 0 0 0 542.72 42.666667 42.666667 0 0 1 0 60.586667 42.666667 42.666667 0 0 1-30.293333 12.373333z m482.56-120.32a39.68 39.68 0 0 1-19.2-4.693333 42.666667 42.666667 0 0 1-18.773334-57.173334 42.666667 42.666667 0 0 1 11.093334-14.08 213.333333 213.333333 0 0 0-3.413334-298.666666A42.666667 42.666667 0 1 1 725.333333 300.8a298.666667 298.666667 0 0 1 0 421.973333 42.666667 42.666667 0 0 1-32.426666 13.226667z m-361.813334 0a42.666667 42.666667 0 0 1-30.293333-10.666667A298.666667 298.666667 0 0 1 298.666667 301.226667 42.666667 42.666667 0 0 1 369.066667 349.866667a42.666667 42.666667 0 0 1-11.093334 14.08 213.333333 213.333333 0 0 0 3.413334 298.666666 42.666667 42.666667 0 0 1 0 60.586667 42.666667 42.666667 0 0 1-30.293334 12.373333z" p-id="4373" fill="#ffffff"></path></svg>