<?xml version="1.0" standalone="no"?><!DOCTYPE svg PUBLIC "-//W3C//DTD SVG 1.1//EN" "http://www.w3.org/Graphics/SVG/1.1/DTD/svg11.dtd"><svg t="1744277456202" class="icon" viewBox="0 0 1024 1024" version="1.1" xmlns="http://www.w3.org/2000/svg" p-id="9400" xmlns:xlink="http://www.w3.org/1999/xlink" width="200" height="200"><path d="M597.333333 896a42.666667 42.666667 0 0 1-42.666666-42.666667 341.333333 341.333333 0 0 0-341.333334-341.333333 42.666667 42.666667 0 0 1 0-85.333333 426.666667 426.666667 0 0 1 426.666667 426.666666 42.666667 42.666667 0 0 1-42.666667 42.666667z" p-id="9401" fill="#ffffff"></path><path d="M896 896a42.666667 42.666667 0 0 1-42.666667-42.666667A640 640 0 0 0 213.333333 213.333333a42.666667 42.666667 0 0 1 0-85.333333 725.333333 725.333333 0 0 1 725.333334 725.333333 42.666667 42.666667 0 0 1-42.666667 42.666667z" p-id="9402" fill="#ffffff"></path><path d="M256 810.666667m-85.333333 0a85.333333 85.333333 0 1 0 170.666666 0 85.333333 85.333333 0 1 0-170.666666 0Z" p-id="9403" fill="#ffffff"></path></svg>