<?xml version="1.0" standalone="no"?><!DOCTYPE svg PUBLIC "-//W3C//DTD SVG 1.1//EN" "http://www.w3.org/Graphics/SVG/1.1/DTD/svg11.dtd"><svg t="1744277466181" class="icon" viewBox="0 0 1024 1024" version="1.1" xmlns="http://www.w3.org/2000/svg" p-id="9819" xmlns:xlink="http://www.w3.org/1999/xlink" width="200" height="200"><path d="M511.998507 682.664676a170.666169 170.666169 0 1 1 170.666169-170.666169 170.666169 170.666169 0 0 1-170.666169 170.666169z m0-255.999254a85.333084 85.333084 0 1 0 85.333084 85.333085 85.333084 85.333084 0 0 0-85.333084-85.333085z" p-id="9820" fill="#ffffff"></path><path d="M515.41183 1023.997013a127.999627 127.999627 0 0 1-127.999627-127.999626 31.146576 31.146576 0 0 0-51.19985-23.466599 127.999627 127.999627 0 0 1-183.466132 2.133328 127.999627 127.999627 0 0 1 0-180.479474 29.439914 29.439914 0 0 0 8.106643-32.853238 28.586583 28.586583 0 0 0-25.599925-17.066616H127.999627a127.999627 127.999627 0 0 1 0-255.999254 28.159918 28.159918 0 0 0 28.159918-18.346613 29.013249 29.013249 0 0 0-4.266655-32.853237 127.999627 127.999627 0 0 1-40.106549-92.586397 127.999627 127.999627 0 0 1 37.119891-90.879735 127.999627 127.999627 0 0 1 181.332805 0 28.586583 28.586583 0 0 0 32.853237 7.679978 49.919854 49.919854 0 0 1 8.533309-2.559993 28.159918 28.159918 0 0 0 12.373297-23.466598V127.999627a127.999627 127.999627 0 0 1 255.999253 0 29.86658 29.86658 0 0 0 16.639952 29.013248 27.733252 27.733252 0 0 0 31.146576-5.54665 127.999627 127.999627 0 0 1 183.466131 0 127.999627 127.999627 0 0 1 0 180.479473 29.439914 29.439914 0 0 0-8.106643 32.853238 62.293152 62.293152 0 0 1 2.986658 8.106643 27.306587 27.306587 0 0 0 22.613267 12.373297H895.997387a127.999627 127.999627 0 0 1 0 255.999254 29.439914 29.439914 0 0 0-29.013249 16.639951 29.013249 29.013249 0 0 0 5.54665 30.71991 127.999627 127.999627 0 0 1 40.10655 92.586397 127.999627 127.999627 0 0 1-37.119892 90.026404 127.999627 127.999627 0 0 1-181.332804 0 28.586583 28.586583 0 0 0-32.853238-7.679977 27.733252 27.733252 0 0 0-17.066616 25.173259V895.997387a127.999627 127.999627 0 0 1-128.852958 127.999626z m-159.146202-244.905952a104.959694 104.959694 0 0 1 44.799869 9.813305 111.359675 111.359675 0 0 1 71.679791 102.399701V895.997387a42.666542 42.666542 0 0 0 85.333084 0v-7.253313a112.639671 112.639671 0 0 1 68.693133-103.679697 111.359675 111.359675 0 0 1 124.159638 23.039933 42.666542 42.666542 0 0 0 62.719817 3.413323 42.666542 42.666542 0 0 0 0-60.159824 114.772999 114.772999 0 0 1-25.599925-127.999627A113.066337 113.066337 0 0 1 892.157398 554.665049 42.666542 42.666542 0 0 0 938.663929 511.998507a42.666542 42.666542 0 0 0-42.666542-42.666543h-7.253313a112.639671 112.639671 0 0 1-103.679697-68.693133 32.853238 32.853238 0 0 1-2.986658-11.093301 111.359675 111.359675 0 0 1 26.026591-116.47966 46.933196 46.933196 0 0 0 15.359955-33.279903 42.666542 42.666542 0 0 0-12.799963-29.866579 42.666542 42.666542 0 0 0-60.159824 0 113.919668 113.919668 0 0 1-127.999627 25.17326A111.786341 111.786341 0 0 1 554.665049 131.839615 42.666542 42.666542 0 0 0 511.998507 85.333084a42.666542 42.666542 0 0 0-42.666543 42.666543v7.253312A112.639671 112.639671 0 0 1 400.638831 238.932636a47.359862 47.359862 0 0 1-11.093301 2.986658 111.359675 111.359675 0 0 1-116.47966-26.02659A42.666542 42.666542 0 0 0 210.346053 213.332711a42.666542 42.666542 0 0 0 0 60.159825 113.919668 113.919668 0 0 1 25.599925 127.999626 112.213006 112.213006 0 0 1-102.826366 71.679791H127.999627a42.666542 42.666542 0 0 0 0 85.333085h7.253312a113.493002 113.493002 0 0 1 80.639765 192.426105 46.933196 46.933196 0 0 0-15.359956 33.279903 42.666542 42.666542 0 0 0 12.799963 29.86658 42.666542 42.666542 0 0 0 60.159825 0 119.466318 119.466318 0 0 1 82.773092-34.986565zM827.730919 639.998133z" p-id="9821" fill="#ffffff"></path></svg>