<?xml version="1.0" standalone="no"?><!DOCTYPE svg PUBLIC "-//W3C//DTD SVG 1.1//EN" "http://www.w3.org/Graphics/SVG/1.1/DTD/svg11.dtd"><svg t="1744277461857" class="icon" viewBox="0 0 1024 1024" version="1.1" xmlns="http://www.w3.org/2000/svg" p-id="9612" xmlns:xlink="http://www.w3.org/1999/xlink" width="200" height="200"><path d="M768 384a170.666667 170.666667 0 1 1 170.666667-170.666667 170.666667 170.666667 0 0 1-170.666667 170.666667z m0-256a85.333333 85.333333 0 1 0 85.333333 85.333333 85.333333 85.333333 0 0 0-85.333333-85.333333zM256 682.666667a170.666667 170.666667 0 1 1 170.666667-170.666667 170.666667 170.666667 0 0 1-170.666667 170.666667z m0-256a85.333333 85.333333 0 1 0 85.333333 85.333333 85.333333 85.333333 0 0 0-85.333333-85.333333zM768 981.333333a170.666667 170.666667 0 1 1 170.666667-170.666666 170.666667 170.666667 0 0 1-170.666667 170.666666z m0-256a85.333333 85.333333 0 1 0 85.333333 85.333334 85.333333 85.333333 0 0 0-85.333333-85.333334z" p-id="9613" fill="#ffffff"></path><path d="M657.92 788.906667a39.68 39.68 0 0 1-21.333333-5.973334l-291.413334-170.666666a42.666667 42.666667 0 0 1 42.666667-73.386667l291.413333 170.666667a42.666667 42.666667 0 0 1-21.333333 79.36zM366.506667 490.24a42.666667 42.666667 0 0 1-21.333334-79.36l290.986667-170.666667a42.666667 42.666667 0 0 1 42.666667 73.386667l-290.986667 170.666667a38.4 38.4 0 0 1-21.333333 5.973333z" p-id="9614" fill="#ffffff"></path></svg>