<?xml version="1.0" standalone="no"?><!DOCTYPE svg PUBLIC "-//W3C//DTD SVG 1.1//EN" "http://www.w3.org/Graphics/SVG/1.1/DTD/svg11.dtd"><svg t="1744277421746" class="icon" viewBox="0 0 1024 1024" version="1.1" xmlns="http://www.w3.org/2000/svg" p-id="8306" xmlns:xlink="http://www.w3.org/1999/xlink" width="200" height="200"><path d="M896 298.666667H128a42.666667 42.666667 0 0 1 0-85.333334h768a42.666667 42.666667 0 0 1 0 85.333334z" p-id="8307" fill="#ffffff"></path><path d="M725.333333 981.333333H298.666667a128 128 0 0 1-128-128V256a42.666667 42.666667 0 0 1 85.333333 0v597.333333a42.666667 42.666667 0 0 0 42.666667 42.666667h426.666666a42.666667 42.666667 0 0 0 42.666667-42.666667V256a42.666667 42.666667 0 0 1 85.333333 0v597.333333a128 128 0 0 1-128 128zM682.666667 298.666667a42.666667 42.666667 0 0 1-42.666667-42.666667V170.666667a42.666667 42.666667 0 0 0-42.666667-42.666667h-170.666666a42.666667 42.666667 0 0 0-42.666667 42.666667v85.333333a42.666667 42.666667 0 0 1-85.333333 0V170.666667a128 128 0 0 1 128-128h170.666666a128 128 0 0 1 128 128v85.333333a42.666667 42.666667 0 0 1-42.666666 42.666667z" p-id="8308" fill="#ffffff"></path></svg>