<?xml version="1.0" standalone="no"?><!DOCTYPE svg PUBLIC "-//W3C//DTD SVG 1.1//EN" "http://www.w3.org/Graphics/SVG/1.1/DTD/svg11.dtd"><svg t="1744277452184" class="icon" viewBox="0 0 1024 1024" version="1.1" xmlns="http://www.w3.org/2000/svg" p-id="9194" xmlns:xlink="http://www.w3.org/1999/xlink" width="200" height="200"><path d="M341.333333 981.333333a35.84 35.84 0 0 1-16.213333-3.413333A42.666667 42.666667 0 0 1 298.666667 938.666667v-128H128a42.666667 42.666667 0 0 1-42.666667-42.666667V85.333333a42.666667 42.666667 0 0 1 42.666667-42.666666h768a42.666667 42.666667 0 0 1 42.666667 42.666666v512a42.666667 42.666667 0 0 1-12.373334 30.293334l-170.666666 170.666666A42.666667 42.666667 0 0 1 725.333333 810.666667h-195.84l-157.866666 158.293333A42.666667 42.666667 0 0 1 341.333333 981.333333z m-170.666666-256h170.666666a42.666667 42.666667 0 0 1 42.666667 42.666667v67.84l97.706667-98.133333A42.666667 42.666667 0 0 1 512 725.333333h195.84L853.333333 579.84V128H170.666667z m512-213.333333a42.666667 42.666667 0 0 1-42.666667-42.666667V298.666667a42.666667 42.666667 0 0 1 85.333333 0v170.666666a42.666667 42.666667 0 0 1-42.666666 42.666667z m-213.333334 0a42.666667 42.666667 0 0 1-42.666666-42.666667V298.666667a42.666667 42.666667 0 0 1 85.333333 0v170.666666a42.666667 42.666667 0 0 1-42.666667 42.666667z" p-id="9195" fill="#ffffff"></path></svg>