<?xml version="1.0" standalone="no"?><!DOCTYPE svg PUBLIC "-//W3C//DTD SVG 1.1//EN" "http://www.w3.org/Graphics/SVG/1.1/DTD/svg11.dtd"><svg t="1744277435957" class="icon" viewBox="0 0 1024 1024" version="1.1" xmlns="http://www.w3.org/2000/svg" p-id="8568" xmlns:xlink="http://www.w3.org/1999/xlink" width="200" height="200"><path d="M725.333333 938.666667a42.666667 42.666667 0 0 1-42.666666-42.666667v-85.333333a128 128 0 0 0-128-128H213.333333a128 128 0 0 0-128 128v85.333333a42.666667 42.666667 0 0 1-85.333333 0v-85.333333a213.333333 213.333333 0 0 1 213.333333-213.333334h341.333334a213.333333 213.333333 0 0 1 213.333333 213.333334v85.333333a42.666667 42.666667 0 0 1-42.666667 42.666667zM384 512a213.333333 213.333333 0 1 1 213.333333-213.333333 213.333333 213.333333 0 0 1-213.333333 213.333333z m0-341.333333a128 128 0 1 0 128 128 128 128 0 0 0-128-128zM981.333333 938.666667a42.666667 42.666667 0 0 1-42.666666-42.666667v-85.333333a128 128 0 0 0-96-123.733334 42.666667 42.666667 0 1 1 21.333333-82.773333A213.333333 213.333333 0 0 1 1024 810.666667v85.333333a42.666667 42.666667 0 0 1-42.666667 42.666667zM682.666667 506.88a42.666667 42.666667 0 0 1-10.666667-85.333333 128 128 0 0 0 92.16-92.16 128 128 0 0 0-13.653333-96.853334 128 128 0 0 0-78.506667-57.6 42.666667 42.666667 0 1 1 21.333333-82.773333 213.333333 213.333333 0 0 1 0 413.44 45.653333 45.653333 0 0 1-10.666666 1.28z" p-id="8569" fill="#ffffff"></path></svg>